<svg xmlns="http://www.w3.org/2000/svg" viewBox="0 0 64 64" role="img" aria-labelledby="title">
  <title>Shalit Group</title>
  <defs>
    <linearGradient id="mark" x1="10" y1="8" x2="54" y2="56" gradientUnits="userSpaceOnUse">
      <stop offset="0" stop-color="#2ea8ff" />
      <stop offset="1" stop-color="#0f7cff" />
    </linearGradient>
  </defs>
  <rect width="64" height="64" rx="14" fill="#123a82" />
  <path
    d="M30 13c-9.4 0-17 7.6-17 17 0 8.4 6.1 15.3 14.1 16.7-2.9-2.1-5.2-5.1-6.7-8.6 4 1.5 8.5 2.4 13.2 2.4.9 0 1.8 0 2.6-.1-.7-.9-1.2-1.9-1.6-3-4.8-.1-9.3-.9-13.2-2.4-.3-1.2-.4-2.5-.4-3.8s.1-2.5.4-3.8c3.9-1.5 8.4-2.3 13.2-2.4.4-1 .9-2 1.6-3-.8-.1-1.7-.1-2.6-.1-4.7 0-9.2.8-13.2 2.4 1.5-3.6 3.8-6.6 6.8-8.7 1.4 3.9 4.1 7.3 7.7 9.7.6-1 1.3-1.9 2-2.8-3.4-2.1-5.8-5.2-6.9-8.8zm2 0c3.4 2.4 6 5.9 7.4 10 .9-.9 2-1.7 3.2-2.3-1.4-3.1-3.5-5.8-6.2-7.7-1.4-.1-2.8-.1-4.4 0zm7.8 8.8c-.9.4-1.8 1-2.5 1.7 1 2.1 1.6 4.4 1.7 6.8h3.1v-8.5c-.8 0-1.6 0-2.3 0zm6.3 2.3v18.1l-5.5 8.4v-7.8h-4.5V55h-6.1V39h-4.5v15.5c9.8-.6 17.6-8.7 17.6-18.7 0-4.3-1.4-8.3-3.9-11.7h6.9z"
    fill="url(#mark)"
  />
</svg>
